<svg width="800" height="800" viewBox="0 0 24 24" stroke="none" stroke-width="0.5" fill="white" xmlns="http://www.w3.org/2000/svg">
  <path d="M9 6.008v6.023a3.008 3.008 0 1 0 6.015 0V6.008a3.008 3.008 0 1 0-6.015 0ZM11 21h2v-2.07a7.06 7.06 0 0 1-2 0V21Zm-1 
    0v-2.29A7.003 7.003 0 0 1 5 12v-.5a.5.5 0 1 1 1 0v.5a6 6 0 1 0 12 0v-.5a.5.5 0 1 1 1 0v.5a7.003 7.003 0 0 1-5 6.71V21h2.5a.5.5 
    0 1 1 0 1h-9a.5.5 0 1 1 0-1H10ZM8 6.008a4.008 4.008 0 0 1 8.015 0v6.023a4.008 4.008 0 1 1-8.015 0V6.008Z"
  />
</svg>
